<svg width="585" height="440" viewBox="0 0 585 440" fill="none" xmlns="http://www.w3.org/2000/svg">
<g filter="url(#filter0_bii_4797_2981)">
<path fill-rule="evenodd" clip-rule="evenodd" d="M192.049 130.347C150.135 107.187 97.3834 122.39 74.2238 164.303L14.1807 272.967C-15.1902 326.121 4.08999 393.021 57.2442 422.392L64.8338 426.585C113.796 453.64 175.421 435.88 202.475 386.918C229.53 337.955 291.154 320.195 340.117 347.25L355.295 355.637C412.64 387.323 484.814 366.523 516.501 309.178L567.014 217.762C604.912 149.176 580.034 62.8541 511.448 24.9562L495.234 15.9971C435.603 -16.9528 360.55 4.6769 327.6 64.3084L309.873 96.3901C286.714 138.303 233.962 153.506 192.049 130.347Z" fill="url(#paint0_radial_4797_2981)"/>
<path fill-rule="evenodd" clip-rule="evenodd" d="M192.049 130.347C150.135 107.187 97.3834 122.39 74.2238 164.303L14.1807 272.967C-15.1902 326.121 4.08999 393.021 57.2442 422.392L64.8338 426.585C113.796 453.64 175.421 435.88 202.475 386.918C229.53 337.955 291.154 320.195 340.117 347.25L355.295 355.637C412.64 387.323 484.814 366.523 516.501 309.178L567.014 217.762C604.912 149.176 580.034 62.8541 511.448 24.9562L495.234 15.9971C435.603 -16.9528 360.55 4.6769 327.6 64.3084L309.873 96.3901C286.714 138.303 233.962 153.506 192.049 130.347Z" fill="url(#paint1_linear_4797_2981)" fill-opacity="0.98"/>
</g>
<defs>
<filter id="filter0_bii_4797_2981" x="-8.55469" y="-8.41235" width="602.292" height="456.65" filterUnits="userSpaceOnUse" color-interpolation-filters="sRGB">
<feFlood flood-opacity="0" result="BackgroundImageFix"/>
<feGaussianBlur in="BackgroundImageFix" stdDeviation="4.5"/>
<feComposite in2="SourceAlpha" operator="in" result="effect1_backgroundBlur_4797_2981"/>
<feBlend mode="normal" in="SourceGraphic" in2="effect1_backgroundBlur_4797_2981" result="shape"/>
<feColorMatrix in="SourceAlpha" type="matrix" values="0 0 0 0 0 0 0 0 0 0 0 0 0 0 0 0 0 0 127 0" result="hardAlpha"/>
<feOffset/>
<feGaussianBlur stdDeviation="50"/>
<feComposite in2="hardAlpha" operator="arithmetic" k2="-1" k3="1"/>
<feColorMatrix type="matrix" values="0 0 0 0 0.228802 0 0 0 0 0.319527 0 0 0 0 0.795833 0 0 0 1 0"/>
<feBlend mode="normal" in2="shape" result="effect2_innerShadow_4797_2981"/>
<feColorMatrix in="SourceAlpha" type="matrix" values="0 0 0 0 0 0 0 0 0 0 0 0 0 0 0 0 0 0 127 0" result="hardAlpha"/>
<feOffset dy="4"/>
<feGaussianBlur stdDeviation="65"/>
<feComposite in2="hardAlpha" operator="arithmetic" k2="-1" k3="1"/>
<feColorMatrix type="matrix" values="0 0 0 0 0.0807292 0 0 0 0 0.238958 0 0 0 0 0.645833 0 0 0 0.7 0"/>
<feBlend mode="normal" in2="effect2_innerShadow_4797_2981" result="effect3_innerShadow_4797_2981"/>
</filter>
<radialGradient id="paint0_radial_4797_2981" cx="0" cy="0" r="1" gradientUnits="userSpaceOnUse" gradientTransform="translate(274.398 218.177) rotate(28.9233) scale(480.813 533.137)">
<stop stop-color="#5EBBFF"/>
<stop offset="1" stop-color="#1292EE" stop-opacity="0"/>
<stop offset="1" stop-color="#0062FF" stop-opacity="0"/>
</radialGradient>
<linearGradient id="paint1_linear_4797_2981" x1="101.015" y1="463.238" x2="582.049" y2="110.911" gradientUnits="userSpaceOnUse">
<stop stop-color="#C7DAFF" stop-opacity="0"/>
<stop offset="0.369389" stop-color="#9DBEFF"/>
<stop offset="0.828125" stop-color="#E1F3FF" stop-opacity="0"/>
</linearGradient>
</defs>
</svg>
